<svg width="168" height="45" viewBox="0 0 168 45" fill="none" xmlns="http://www.w3.org/2000/svg">
<path d="M12.3813 13.5975V34.0393H6.86236V13.5975H0V8.6958H19.2437V13.5975H12.3813Z" fill="#FFC757"/>
<path d="M28.3047 34.475C26.8523 34.475 25.5573 34.2451 24.4196 33.7852C23.282 33.3011 22.3137 32.6354 21.5149 31.7882C20.7404 30.9168 20.1473 29.8638 19.7358 28.6293C19.3485 27.3948 19.1549 26.0151 19.1549 24.4901C19.1549 22.9894 19.3485 21.6338 19.7358 20.4235C20.1231 19.189 20.6919 18.1361 21.4423 17.2647C22.2169 16.3933 23.1609 15.7276 24.2744 15.2677C25.3879 14.7836 26.6587 14.5415 28.0868 14.5415C29.6602 14.5415 31.0036 14.8078 32.1171 15.3403C33.2548 15.8728 34.1746 16.5869 34.8766 17.4825C35.6027 18.3781 36.1232 19.419 36.4378 20.6051C36.7767 21.767 36.9462 22.9894 36.9462 24.2723V25.8699H24.7101V26.1603C24.7101 27.419 25.049 28.4236 25.7268 29.174C26.4045 29.9001 27.4696 30.2632 28.9219 30.2632C30.0354 30.2632 30.9431 30.0454 31.6451 29.6097C32.3471 29.1497 33.0006 28.6051 33.6058 27.9758L36.2926 31.3162C35.4454 32.3086 34.3319 33.0832 32.9522 33.6399C31.5967 34.1967 30.0475 34.475 28.3047 34.475ZM28.1958 18.4992C27.1065 18.4992 26.2472 18.8623 25.6178 19.5884C25.0127 20.2904 24.7101 21.2344 24.7101 22.4205V22.711H31.3909V22.3842C31.3909 21.2223 31.1247 20.2904 30.5921 19.5884C30.0838 18.8623 29.285 18.4992 28.1958 18.4992Z" fill="#FFC757"/>
<path d="M38.3222 34.0393L44.6036 24.3449L38.3948 14.9772H44.4947L48.053 20.9682H48.1982L51.6475 14.9772H57.3117L50.994 24.5264L57.348 34.0393H51.2481L47.581 27.8305H47.4357L43.9138 34.0393H38.3222Z" fill="#FFC757"/>
<path d="M67.1721 34.0393C65.3082 34.0393 63.8922 33.5673 62.924 32.6233C61.9799 31.6793 61.5079 30.2995 61.5079 28.4841V19.1527H58.8211V14.9772H60.1645C60.8907 14.9772 61.3869 14.8078 61.6532 14.4689C61.9194 14.1058 62.0526 13.5975 62.0526 12.9439V9.82137H66.8816V14.9772H70.6577V19.1527H66.8816V29.8638H70.3673V34.0393H67.1721Z" fill="#FFC757"/>
<path d="M83.8429 8.6958H94.2636C96.3695 8.6958 98.0155 9.28884 99.2015 10.4749C100.412 11.661 101.017 13.2465 101.017 15.2314C101.017 16.1754 100.884 16.9742 100.618 17.6278C100.351 18.2813 100.012 18.826 99.6009 19.2617C99.1894 19.6732 98.7416 19.9878 98.2575 20.2057C97.7734 20.3993 97.3256 20.5325 96.9141 20.6051V20.8229C97.374 20.8471 97.8823 20.9682 98.4391 21.186C99.02 21.4039 99.5646 21.7549 100.073 22.239C100.581 22.6989 101.005 23.304 101.344 24.0544C101.707 24.7806 101.888 25.6641 101.888 26.705C101.888 27.7458 101.719 28.714 101.38 29.6097C101.065 30.5053 100.618 31.2799 100.037 31.9334C99.4557 32.587 98.7658 33.1074 97.967 33.4947C97.1683 33.8578 96.2968 34.0393 95.3528 34.0393H83.8429V8.6958ZM86.8929 31.3525H94.4088C95.7159 31.3525 96.7446 31.0257 97.495 30.3721C98.2454 29.6944 98.6206 28.714 98.6206 27.4311V26.1966C98.6206 24.9137 98.2454 23.9455 97.495 23.2919C96.7446 22.6142 95.7159 22.2753 94.4088 22.2753H86.8929V31.3525ZM86.8929 19.6611H93.9005C95.1108 19.6611 96.0548 19.3585 96.7326 18.7533C97.4103 18.1482 97.7492 17.2768 97.7492 16.1391V14.9046C97.7492 13.7669 97.4103 12.8955 96.7326 12.2904C96.0548 11.6852 95.1108 11.3827 93.9005 11.3827H86.8929V19.6611Z" fill="#FFC757"/>
<path d="M120.89 34.0393C119.8 34.0393 119.014 33.7489 118.529 33.1679C118.07 32.587 117.779 31.8608 117.658 30.9894H117.477C117.065 32.1513 116.387 33.0227 115.443 33.6036C114.499 34.1846 113.374 34.475 112.066 34.475C110.082 34.475 108.532 33.9667 107.419 32.9501C106.33 31.9334 105.785 30.5537 105.785 28.8109C105.785 27.0438 106.427 25.6883 107.709 24.7443C109.017 23.8003 111.038 23.3282 113.773 23.3282H117.477V21.4765C117.477 20.1452 117.113 19.1285 116.387 18.4266C115.661 17.7246 114.548 17.3736 113.047 17.3736C111.909 17.3736 110.953 17.6278 110.178 18.1361C109.428 18.6444 108.799 19.3222 108.29 20.1694L106.548 18.5355C107.056 17.5188 107.867 16.6595 108.98 15.9576C110.094 15.2314 111.498 14.8683 113.192 14.8683C115.467 14.8683 117.234 15.425 118.493 16.5385C119.752 17.652 120.381 19.2011 120.381 21.186V31.4977H122.523V34.0393H120.89ZM112.538 32.006C113.265 32.006 113.93 31.9213 114.535 31.7519C115.141 31.5824 115.661 31.3404 116.097 31.0257C116.532 30.711 116.871 30.3479 117.113 29.9364C117.355 29.5249 117.477 29.0771 117.477 28.593V25.5068H113.628C111.958 25.5068 110.735 25.7488 109.961 26.2329C109.21 26.7171 108.835 27.419 108.835 28.3389V29.1013C108.835 30.0212 109.162 30.7352 109.815 31.2436C110.493 31.7519 111.401 32.006 112.538 32.006Z" fill="#FFC757"/>
<path d="M132.297 34.475C130.554 34.475 129.09 34.1483 127.904 33.4947C126.742 32.8169 125.737 31.9213 124.89 30.8078L126.96 29.1376C127.686 30.0575 128.497 30.7715 129.392 31.2799C130.288 31.764 131.329 32.006 132.515 32.006C133.749 32.006 134.705 31.7398 135.383 31.2072C136.085 30.6747 136.436 29.9243 136.436 28.9561C136.436 28.2299 136.194 27.6127 135.71 27.1044C135.25 26.5718 134.403 26.2087 133.168 26.0151L131.68 25.7972C130.808 25.6762 130.01 25.4947 129.283 25.2526C128.557 24.9863 127.916 24.6475 127.359 24.236C126.826 23.8003 126.403 23.2677 126.088 22.6384C125.798 22.009 125.652 21.2586 125.652 20.3872C125.652 19.4674 125.822 18.6686 126.161 17.9908C126.5 17.2889 126.96 16.7079 127.541 16.248C128.146 15.7881 128.86 15.4492 129.683 15.2314C130.506 14.9893 131.389 14.8683 132.333 14.8683C133.858 14.8683 135.129 15.1346 136.146 15.6671C137.187 16.1996 138.094 16.9379 138.869 17.8819L136.945 19.6247C136.533 19.0438 135.928 18.5234 135.129 18.0635C134.33 17.5793 133.326 17.3373 132.115 17.3373C130.905 17.3373 129.985 17.6036 129.356 18.1361C128.751 18.6444 128.448 19.3464 128.448 20.242C128.448 21.1618 128.751 21.8275 129.356 22.239C129.985 22.6505 130.881 22.953 132.043 23.1467L133.495 23.3646C135.577 23.6792 137.053 24.2844 137.925 25.18C138.796 26.0514 139.232 27.2012 139.232 28.6293C139.232 30.4448 138.615 31.8729 137.38 32.9138C136.146 33.9546 134.451 34.475 132.297 34.475Z" fill="#FFC757"/>
<path d="M151.406 34.475C150.124 34.475 148.962 34.2451 147.921 33.7852C146.904 33.3253 146.021 32.6717 145.27 31.8245C144.544 30.9531 143.975 29.9243 143.564 28.7382C143.176 27.528 142.983 26.1724 142.983 24.6717C142.983 23.1951 143.176 21.8517 143.564 20.6414C143.975 19.4311 144.544 18.4023 145.27 17.5551C146.021 16.6837 146.904 16.0181 147.921 15.5582C148.962 15.0982 150.124 14.8683 151.406 14.8683C152.665 14.8683 153.791 15.0982 154.783 15.5582C155.776 16.0181 156.623 16.6595 157.325 17.4825C158.027 18.2813 158.559 19.2375 158.922 20.3509C159.31 21.4644 159.503 22.6868 159.503 24.0181V25.3978H146.033V26.2692C146.033 27.068 146.154 27.8184 146.396 28.5204C146.662 29.1982 147.025 29.7912 147.485 30.2995C147.969 30.8078 148.55 31.2072 149.228 31.4977C149.93 31.7882 150.717 31.9334 151.588 31.9334C152.774 31.9334 153.803 31.6551 154.674 31.0983C155.57 30.5416 156.26 29.7428 156.744 28.7019L158.813 30.1906C158.208 31.4735 157.264 32.5144 155.981 33.3132C154.698 34.0877 153.174 34.475 151.406 34.475ZM151.406 17.301C150.608 17.301 149.882 17.4462 149.228 17.7367C148.574 18.003 148.006 18.3902 147.521 18.8986C147.062 19.4069 146.698 20.012 146.432 20.714C146.166 21.3918 146.033 22.1422 146.033 22.9652V23.2193H156.381V22.8199C156.381 21.1497 155.921 19.8184 155.001 18.826C154.105 17.8093 152.907 17.301 151.406 17.301Z" fill="#FFC757"/>
<path d="M167.648 0.00396497C167.667 0.396831 167.694 0.711901 167.694 1.02697C167.696 10.0668 167.719 16.658 167.689 25.6978C167.659 34.9865 161.939 42.5132 153.395 44.4892C152.062 44.7848 150.705 44.9326 149.342 44.9326C143.334 44.9793 97.5414 44.9676 91.5329 44.9501C82.3697 44.9229 75.0655 38.5476 73.396 29.1363C73.2659 28.5023 73.1953 27.8566 73.1804 27.2089C73.2027 22.8368 73.0205 20.8978 73.3514 16.551C73.9854 8.27165 81.0033 1.03864 88.8856 0.192618C89.962 0.0759255 91.0459 0.0156342 92.1278 0.0136894C103.65 7.52125e-05 154.956 -0.00381455 166.479 0.00396497H167.65H167.648ZM164.415 3.47363C164.049 3.45613 163.833 3.43668 163.618 3.43668C152.841 3.43668 102.282 3.43668 91.5051 3.44251C90.7001 3.42695 89.8951 3.47946 89.0976 3.60005C81.5405 4.91867 76.4765 11.1442 76.4263 19.1571C76.4096 21.8469 76.4114 22.0842 76.43 24.7739C76.4393 25.9389 76.4058 27.1214 76.5862 28.2611C77.841 36.2021 83.8476 41.5038 91.5497 41.5155C97.5265 41.5232 143.287 41.5232 149.264 41.5116C149.976 41.5291 150.688 41.4921 151.394 41.3988C159.24 40.1638 164.41 33.8721 164.415 25.5694C164.421 17.7627 164.421 12.4045 164.415 4.59777V3.47363Z" fill="url(#paint0_linear_345_3128)"/>
<defs>
<linearGradient id="paint0_linear_345_3128" x1="44.6145" y1="63.86" x2="59.5692" y2="-7.37586" gradientUnits="userSpaceOnUse">
<stop stop-color="#04043D"/>
<stop offset="0.5" stop-color="#FE0078"/>
<stop offset="1" stop-color="#FEAA00"/>
</linearGradient>
</defs>
</svg>
